<?xml version="1.0" encoding="UTF-8" ?>
<svg version="1.1" width="256" height="256" xmlns="http://www.w3.org/2000/svg" shape-rendering="crispEdges">
<rect x="80" y="0" width="16" height="16" fill="#070505" />
<rect x="96" y="0" width="16" height="16" fill="#070505" />
<rect x="48" y="16" width="16" height="16" fill="#070505" />
<rect x="64" y="16" width="16" height="16" fill="#070505" />
<rect x="80" y="16" width="16" height="16" fill="#6825AA" />
<rect x="96" y="16" width="16" height="16" fill="#6825AA" />
<rect x="112" y="16" width="16" height="16" fill="#070505" />
<rect x="32" y="32" width="16" height="16" fill="#070505" />
<rect x="48" y="32" width="16" height="16" fill="#6825AA" />
<rect x="64" y="32" width="16" height="16" fill="#6825AA" />
<rect x="80" y="32" width="16" height="16" fill="#6825AA" />
<rect x="96" y="32" width="16" height="16" fill="#6825AA" />
<rect x="112" y="32" width="16" height="16" fill="#6825AA" />
<rect x="128" y="32" width="16" height="16" fill="#070505" />
<rect x="144" y="32" width="16" height="16" fill="#070505" />
<rect x="32" y="48" width="16" height="16" fill="#070505" />
<rect x="48" y="48" width="16" height="16" fill="#6825AA" />
<rect x="64" y="48" width="16" height="16" fill="#070505" />
<rect x="80" y="48" width="16" height="16" fill="#070505" />
<rect x="96" y="48" width="16" height="16" fill="#350751" />
<rect x="112" y="48" width="16" height="16" fill="#6825AA" />
<rect x="128" y="48" width="16" height="16" fill="#6825AA" />
<rect x="144" y="48" width="16" height="16" fill="#350751" />
<rect x="160" y="48" width="16" height="16" fill="#070505" />
<rect x="48" y="64" width="16" height="16" fill="#070505" />
<rect x="64" y="64" width="16" height="16" fill="#070505" />
<rect x="80" y="64" width="16" height="16" fill="#350751" />
<rect x="96" y="64" width="16" height="16" fill="#350751" />
<rect x="112" y="64" width="16" height="16" fill="#350751" />
<rect x="128" y="64" width="16" height="16" fill="#CA22C1" />
<rect x="144" y="64" width="16" height="16" fill="#CA22C1" />
<rect x="160" y="64" width="16" height="16" fill="#CA22C1" />
<rect x="176" y="64" width="16" height="16" fill="#070505" />
<rect x="48" y="80" width="16" height="16" fill="#070505" />
<rect x="64" y="80" width="16" height="16" fill="#833A95" />
<rect x="80" y="80" width="16" height="16" fill="#350751" />
<rect x="96" y="80" width="16" height="16" fill="#CA22C1" />
<rect x="112" y="80" width="16" height="16" fill="#CA22C1" />
<rect x="128" y="80" width="16" height="16" fill="#CA22C1" />
<rect x="144" y="80" width="16" height="16" fill="#BF40FF" />
<rect x="160" y="80" width="16" height="16" fill="#CA22C1" />
<rect x="176" y="80" width="16" height="16" fill="#070505" />
<rect x="48" y="96" width="16" height="16" fill="#070505" />
<rect x="64" y="96" width="16" height="16" fill="#350751" />
<rect x="80" y="96" width="16" height="16" fill="#833A95" />
<rect x="96" y="96" width="16" height="16" fill="#CA22C1" />
<rect x="112" y="96" width="16" height="16" fill="#BF40FF" />
<rect x="128" y="96" width="16" height="16" fill="#BF40FF" />
<rect x="144" y="96" width="16" height="16" fill="#BF40FF" />
<rect x="160" y="96" width="16" height="16" fill="#BF40FF" />
<rect x="176" y="96" width="16" height="16" fill="#070505" />
<rect x="48" y="112" width="16" height="16" fill="#070505" />
<rect x="64" y="112" width="16" height="16" fill="#350751" />
<rect x="80" y="112" width="16" height="16" fill="#350751" />
<rect x="96" y="112" width="16" height="16" fill="#CA22C1" />
<rect x="112" y="112" width="16" height="16" fill="#CA22C1" />
<rect x="128" y="112" width="16" height="16" fill="#CA22C1" />
<rect x="144" y="112" width="16" height="16" fill="#BF40FF" />
<rect x="160" y="112" width="16" height="16" fill="#CA22C1" />
<rect x="176" y="112" width="16" height="16" fill="#070505" />
<rect x="64" y="128" width="16" height="16" fill="#070505" />
<rect x="80" y="128" width="16" height="16" fill="#350751" />
<rect x="96" y="128" width="16" height="16" fill="#350751" />
<rect x="112" y="128" width="16" height="16" fill="#350751" />
<rect x="128" y="128" width="16" height="16" fill="#CA22C1" />
<rect x="144" y="128" width="16" height="16" fill="#CA22C1" />
<rect x="160" y="128" width="16" height="16" fill="#CA22C1" />
<rect x="176" y="128" width="16" height="16" fill="#070505" />
<rect x="64" y="144" width="16" height="16" fill="#070505" />
<rect x="80" y="144" width="16" height="16" fill="#350751" />
<rect x="96" y="144" width="16" height="16" fill="#350751" />
<rect x="112" y="144" width="16" height="16" fill="#350751" />
<rect x="128" y="144" width="16" height="16" fill="#350751" />
<rect x="144" y="144" width="16" height="16" fill="#350751" />
<rect x="160" y="144" width="16" height="16" fill="#070505" />
<rect x="176" y="144" width="16" height="16" fill="#070505" />
<rect x="80" y="160" width="16" height="16" fill="#070505" />
<rect x="96" y="160" width="16" height="16" fill="#9F216F" />
<rect x="112" y="160" width="16" height="16" fill="#9F216F" />
<rect x="128" y="160" width="16" height="16" fill="#4C4651" />
<rect x="144" y="160" width="16" height="16" fill="#9F216F" />
<rect x="160" y="160" width="16" height="16" fill="#070505" />
<rect x="80" y="176" width="16" height="16" fill="#070505" />
<rect x="96" y="176" width="16" height="16" fill="#350751" />
<rect x="112" y="176" width="16" height="16" fill="#070505" />
<rect x="128" y="176" width="16" height="16" fill="#070505" />
<rect x="144" y="176" width="16" height="16" fill="#350751" />
<rect x="160" y="176" width="16" height="16" fill="#070505" />
<rect x="64" y="192" width="16" height="16" fill="#070505" />
<rect x="80" y="192" width="16" height="16" fill="#070505" />
<rect x="96" y="192" width="16" height="16" fill="#070505" />
<rect x="112" y="192" width="16" height="16" fill="#070505" />
<rect x="128" y="192" width="16" height="16" fill="#070505" />
<rect x="144" y="192" width="16" height="16" fill="#070505" />
<rect x="160" y="192" width="16" height="16" fill="#070505" />
<rect x="176" y="192" width="16" height="16" fill="#070505" />
<rect x="32" y="208" width="16" height="16" fill="#070505" />
<rect x="48" y="208" width="16" height="16" fill="#070505" />
<rect x="64" y="208" width="16" height="16" fill="#78410D" />
<rect x="80" y="208" width="16" height="16" fill="#78410D" />
<rect x="96" y="208" width="16" height="16" fill="#78410D" />
<rect x="112" y="208" width="16" height="16" fill="#78410D" />
<rect x="128" y="208" width="16" height="16" fill="#78410D" />
<rect x="144" y="208" width="16" height="16" fill="#78410D" />
<rect x="160" y="208" width="16" height="16" fill="#78410D" />
<rect x="176" y="208" width="16" height="16" fill="#78410D" />
<rect x="192" y="208" width="16" height="16" fill="#070505" />
<rect x="208" y="208" width="16" height="16" fill="#070505" />
<rect x="16" y="224" width="16" height="16" fill="#070505" />
<rect x="32" y="224" width="16" height="16" fill="#8F4C0E" />
<rect x="48" y="224" width="16" height="16" fill="#8F4C0E" />
<rect x="64" y="224" width="16" height="16" fill="#8F4C0E" />
<rect x="80" y="224" width="16" height="16" fill="#8F4C0E" />
<rect x="96" y="224" width="16" height="16" fill="#8F4C0E" />
<rect x="112" y="224" width="16" height="16" fill="#8F4C0E" />
<rect x="128" y="224" width="16" height="16" fill="#8F4C0E" />
<rect x="144" y="224" width="16" height="16" fill="#8F4C0E" />
<rect x="160" y="224" width="16" height="16" fill="#8F4C0E" />
<rect x="176" y="224" width="16" height="16" fill="#8F4C0E" />
<rect x="192" y="224" width="16" height="16" fill="#8F4C0E" />
<rect x="208" y="224" width="16" height="16" fill="#8F4C0E" />
<rect x="224" y="224" width="16" height="16" fill="#070505" />
<rect x="16" y="240" width="16" height="16" fill="#070505" />
<rect x="32" y="240" width="16" height="16" fill="#070505" />
<rect x="48" y="240" width="16" height="16" fill="#070505" />
<rect x="64" y="240" width="16" height="16" fill="#070505" />
<rect x="80" y="240" width="16" height="16" fill="#070505" />
<rect x="96" y="240" width="16" height="16" fill="#070505" />
<rect x="112" y="240" width="16" height="16" fill="#070505" />
<rect x="128" y="240" width="16" height="16" fill="#070505" />
<rect x="144" y="240" width="16" height="16" fill="#070505" />
<rect x="160" y="240" width="16" height="16" fill="#070505" />
<rect x="176" y="240" width="16" height="16" fill="#070505" />
<rect x="192" y="240" width="16" height="16" fill="#070505" />
<rect x="208" y="240" width="16" height="16" fill="#070505" />
<rect x="224" y="240" width="16" height="16" fill="#070505" />
</svg>